<svg width="197" height="103" viewBox="0 0 197 103" fill="none" xmlns="http://www.w3.org/2000/svg">
<path d="M26.0251 1.824C28.1371 1.824 30.2011 1.776 32.2171 1.68C34.2651 1.584 36.3451 1.536 38.4571 1.536C38.7771 1.536 39.0651 1.744 39.3211 2.16C39.5771 2.544 39.8011 3.008 39.9931 3.552C40.1851 4.064 40.3291 4.592 40.4251 5.136C40.5531 5.648 40.6171 6.032 40.6171 6.288C40.6171 6.544 40.5211 6.768 40.3291 6.96C40.1691 7.152 39.9611 7.248 39.7051 7.248C39.4171 7.248 39.1611 7.136 38.9371 6.912C38.7131 6.656 38.4891 6.384 38.2651 6.096C38.0731 5.776 37.8491 5.472 37.5931 5.184C37.3691 4.896 37.1131 4.704 36.8251 4.608C36.2171 4.416 35.5771 4.304 34.9051 4.272C34.2651 4.24 33.6411 4.224 33.0331 4.224C31.6251 4.224 30.2331 4.256 28.8571 4.32C27.5131 4.384 26.1371 4.416 24.7291 4.416C24.2811 4.416 24.0571 4.608 24.0571 4.992C23.9611 5.248 23.8811 5.712 23.8171 6.384C23.7851 7.024 23.7531 7.728 23.7211 8.496C23.6891 9.264 23.6731 10.016 23.6731 10.752C23.6731 11.456 23.6731 11.968 23.6731 12.288C23.6731 12.768 23.7691 13.104 23.9611 13.296C24.1531 13.488 24.4891 13.584 24.9691 13.584C25.2891 13.584 25.8491 13.6 26.6491 13.632C27.4811 13.632 28.4091 13.632 29.4331 13.632C30.4571 13.6 31.5451 13.584 32.6971 13.584C33.8491 13.552 34.9051 13.52 35.8651 13.488C36.8251 13.424 37.6411 13.344 38.3131 13.248C39.0171 13.12 39.4331 12.976 39.5611 12.816C39.7531 12.528 39.9131 12.224 40.0411 11.904C40.1691 11.552 40.3611 11.248 40.6171 10.992L41.0011 10.944C41.3851 10.944 41.6731 11.136 41.8651 11.52C42.0571 11.904 42.1851 12.352 42.2491 12.864C42.3451 13.376 42.3771 13.904 42.3451 14.448C42.3451 14.96 42.3451 15.344 42.3451 15.6C42.3451 15.824 42.3291 16.112 42.2971 16.464C42.2971 16.816 42.2491 17.168 42.1531 17.52C42.0891 17.872 41.9611 18.176 41.7691 18.432C41.6091 18.688 41.3691 18.816 41.0491 18.816C40.9531 18.816 40.8411 18.8 40.7131 18.768C40.6171 18.736 40.5371 18.704 40.4731 18.672C40.1851 18.384 39.9611 18.064 39.8011 17.712C39.6731 17.328 39.4651 16.976 39.1771 16.656C39.0491 16.528 38.6811 16.432 38.0731 16.368C37.4651 16.272 36.7131 16.208 35.8171 16.176C34.9531 16.112 33.9931 16.064 32.9371 16.032C31.9131 16 30.9211 15.984 29.9611 15.984C29.0331 15.952 28.2011 15.936 27.4651 15.936C26.7291 15.936 26.2011 15.936 25.8811 15.936C25.3371 15.936 24.9051 16 24.5851 16.128C24.2971 16.224 24.0731 16.384 23.9131 16.608C23.7531 16.8 23.6571 17.072 23.6251 17.424C23.5931 17.776 23.5771 18.192 23.5771 18.672C23.5771 20.592 23.6251 22.512 23.7211 24.432C23.8171 26.32 23.8651 28.224 23.8651 30.144C23.8651 30.592 23.8171 31.04 23.7211 31.488C23.6571 31.936 23.6251 32.384 23.6251 32.832L23.6731 33.456C23.8971 33.488 24.1051 33.504 24.2971 33.504C24.5211 33.504 24.7611 33.504 25.0171 33.504C25.6251 33.504 26.5371 33.504 27.7531 33.504C29.0011 33.504 30.2971 33.488 31.6411 33.456C32.9851 33.424 34.2331 33.36 35.3851 33.264C36.5371 33.136 37.3211 32.96 37.7371 32.736C37.9291 32.64 38.1691 32.448 38.4571 32.16C38.7451 31.872 39.0331 31.584 39.3211 31.296C39.6411 30.976 39.9291 30.704 40.1851 30.48C40.4411 30.224 40.6491 30.096 40.8091 30.096C41.0971 30.096 41.3691 30.192 41.6251 30.384C41.8811 30.576 42.0091 30.816 42.0091 31.104C42.0091 31.296 41.8811 31.68 41.6251 32.256C41.3691 32.8 41.0651 33.376 40.7131 33.984C40.3931 34.56 40.0571 35.072 39.7051 35.52C39.3851 35.968 39.1451 36.192 38.9851 36.192H19.7851C19.6251 36.192 19.4171 36.176 19.1611 36.144C18.9371 36.144 18.7131 36.096 18.4891 36C18.2971 35.936 18.1211 35.84 17.9611 35.712C17.8011 35.584 17.7211 35.408 17.7211 35.184C17.9131 34.704 18.1211 34.368 18.3451 34.176C18.5691 33.952 18.7771 33.808 18.9691 33.744C19.1931 33.648 19.3851 33.568 19.5451 33.504C19.7371 33.44 19.8971 33.296 20.0251 33.072C20.0891 32.976 20.1371 32.416 20.1691 31.392C20.2331 30.368 20.2811 29.088 20.3131 27.552C20.3451 26.016 20.3611 24.32 20.3611 22.464C20.3611 20.608 20.3611 18.784 20.3611 16.992C20.3931 15.168 20.4091 13.488 20.4091 11.952C20.4091 10.384 20.4091 9.152 20.4091 8.256C20.4091 8.064 20.3931 7.792 20.3611 7.44C20.3611 7.056 20.3451 6.672 20.3131 6.288C20.3131 5.904 20.2811 5.552 20.2171 5.232C20.1851 4.88 20.1211 4.624 20.0251 4.464C19.9291 4.304 19.7691 4.176 19.5451 4.08C19.3211 3.984 19.0811 3.888 18.8251 3.792C18.6011 3.696 18.3931 3.6 18.2011 3.504C18.0411 3.376 17.9611 3.2 17.9611 2.976C17.9611 2.496 18.3131 2.176 19.0171 2.016C19.7211 1.824 20.5211 1.712 21.4171 1.68C22.3451 1.648 23.2571 1.664 24.1531 1.728C25.0491 1.792 25.6731 1.824 26.0251 1.824ZM49.6058 0.815998C49.8618 0.815998 50.2458 0.831998 50.7578 0.863997C51.2698 0.863997 51.7658 0.911998 52.2458 1.008C52.7578 1.104 53.2058 1.264 53.5898 1.488C53.9738 1.68 54.1658 1.984 54.1658 2.4C54.1658 2.816 54.0058 3.072 53.6858 3.168C53.5578 3.264 53.3498 3.392 53.0618 3.552C52.8058 3.68 52.6778 3.824 52.6778 3.984C52.6778 4.08 52.8218 4.368 53.1098 4.848C53.3978 5.296 53.7658 5.84 54.2138 6.48C54.6618 7.12 55.1578 7.808 55.7018 8.544C56.2458 9.28 56.7578 10 57.2378 10.704C57.7178 11.376 58.1498 11.984 58.5338 12.528C58.9178 13.04 59.1898 13.392 59.3498 13.584L59.8778 13.824C60.0058 13.824 60.2458 13.632 60.5978 13.248C60.9498 12.864 61.3338 12.4 61.7498 11.856C62.1978 11.28 62.6618 10.672 63.1418 10.032C63.6218 9.36 64.0538 8.752 64.4378 8.208C64.8538 7.632 65.1898 7.152 65.4458 6.768C65.7338 6.352 65.8938 6.128 65.9258 6.096C65.9898 6 66.1018 5.872 66.2618 5.712C66.4218 5.52 66.5818 5.344 66.7418 5.184C66.9338 4.992 67.0938 4.816 67.2218 4.656C67.3498 4.496 67.4138 4.368 67.4138 4.272C67.4138 3.984 67.3178 3.792 67.1258 3.696C66.9338 3.568 66.7258 3.456 66.5018 3.36C66.2778 3.264 66.0698 3.136 65.8778 2.976C65.6858 2.816 65.5898 2.56 65.5898 2.208C65.7178 1.824 65.8938 1.536 66.1178 1.344C66.3738 1.152 66.6458 1.04 66.9338 1.008C67.2218 0.943999 67.5258 0.927999 67.8458 0.959999C68.1978 0.959999 68.5498 0.959999 68.9018 0.959999C69.1578 0.959999 69.5578 0.975999 70.1018 1.008C70.6458 1.008 71.1738 1.056 71.6858 1.152C72.2298 1.248 72.6938 1.408 73.0778 1.632C73.4938 1.856 73.7018 2.176 73.7018 2.592C73.7018 2.848 73.6218 3.072 73.4618 3.264C73.3018 3.424 73.0938 3.552 72.8378 3.648C72.6138 3.744 72.3578 3.824 72.0698 3.888C71.8138 3.952 71.5898 4.016 71.3978 4.08C71.1418 4.304 70.7098 4.768 70.1018 5.472C69.4938 6.144 68.8218 6.944 68.0858 7.872C67.3498 8.8 66.5818 9.792 65.7818 10.848C64.9818 11.872 64.2458 12.864 63.5738 13.824C62.9338 14.752 62.4058 15.584 61.9898 16.32C61.5738 17.024 61.3658 17.504 61.3658 17.76C61.3658 18.88 61.3978 19.984 61.4618 21.072C61.5258 22.128 61.5578 23.216 61.5578 24.336C61.5578 25.36 61.4938 26.368 61.3658 27.36C61.2698 28.32 61.2218 29.312 61.2218 30.336C61.2218 30.688 61.2218 31.04 61.2218 31.392C61.2538 31.712 61.3018 32.032 61.3658 32.352C61.4298 32.736 61.5898 32.992 61.8458 33.12C62.1338 33.248 62.4218 33.36 62.7098 33.456C62.9978 33.552 63.2538 33.68 63.4778 33.84C63.7338 33.968 63.8618 34.224 63.8618 34.608C63.8618 34.928 63.6538 35.168 63.2378 35.328C62.8538 35.488 62.3898 35.616 61.8458 35.712C61.3338 35.776 60.8218 35.824 60.3098 35.856C59.7978 35.856 59.4138 35.856 59.1578 35.856C58.9338 35.856 58.5978 35.856 58.1498 35.856C57.7338 35.824 57.3018 35.76 56.8538 35.664C56.4378 35.568 56.0538 35.424 55.7018 35.232C55.3818 35.04 55.2218 34.784 55.2218 34.464C55.2218 33.952 55.3658 33.648 55.6538 33.552C55.9418 33.424 56.2618 33.312 56.6138 33.216C56.9658 33.088 57.2858 32.848 57.5738 32.496C57.8618 32.144 58.0058 31.456 58.0058 30.432C58.0058 29.92 58.0058 29.248 58.0058 28.416C58.0058 27.584 58.0058 26.688 58.0058 25.728C58.0058 24.736 57.9898 23.728 57.9578 22.704C57.9578 21.68 57.9258 20.736 57.8618 19.872C57.8298 18.976 57.7658 18.208 57.6698 17.568C57.5738 16.928 57.4618 16.512 57.3338 16.32C57.1418 16.064 56.8058 15.584 56.3258 14.88C55.8458 14.144 55.2858 13.328 54.6458 12.432C54.0378 11.504 53.3818 10.544 52.6778 9.552C51.9738 8.56 51.3018 7.648 50.6618 6.816C50.0538 5.952 49.5258 5.232 49.0778 4.656C48.6298 4.08 48.3418 3.76 48.2138 3.696C47.9898 3.6 47.7018 3.52 47.3498 3.456C47.0298 3.392 46.7098 3.312 46.3898 3.216C46.0698 3.088 45.7978 2.944 45.5738 2.784C45.3498 2.592 45.2378 2.32 45.2378 1.968C45.2378 1.584 45.4138 1.312 45.7658 1.152C46.1178 0.992 46.5338 0.895999 47.0138 0.863997C47.4938 0.799998 47.9738 0.783998 48.4538 0.815998C48.9658 0.815998 49.3498 0.815998 49.6058 0.815998ZM82.8844 1.824C84.9964 1.824 87.0604 1.776 89.0764 1.68C91.1244 1.584 93.2044 1.536 95.3164 1.536C95.6364 1.536 95.9244 1.744 96.1804 2.16C96.4364 2.544 96.6604 3.008 96.8524 3.552C97.0444 4.064 97.1884 4.592 97.2844 5.136C97.4124 5.648 97.4764 6.032 97.4764 6.288C97.4764 6.544 97.3804 6.768 97.1884 6.96C97.0284 7.152 96.8204 7.248 96.5644 7.248C96.2764 7.248 96.0204 7.136 95.7964 6.912C95.5724 6.656 95.3484 6.384 95.1244 6.096C94.9324 5.776 94.7084 5.472 94.4524 5.184C94.2284 4.896 93.9724 4.704 93.6844 4.608C93.0764 4.416 92.4364 4.304 91.7644 4.272C91.1244 4.24 90.5004 4.224 89.8924 4.224C88.4844 4.224 87.0924 4.256 85.7164 4.32C84.3724 4.384 82.9964 4.416 81.5884 4.416C81.1404 4.416 80.9164 4.608 80.9164 4.992C80.8204 5.248 80.7404 5.712 80.6764 6.384C80.6444 7.024 80.6124 7.728 80.5804 8.496C80.5484 9.264 80.5324 10.016 80.5324 10.752C80.5324 11.456 80.5324 11.968 80.5324 12.288C80.5324 12.768 80.6284 13.104 80.8204 13.296C81.0124 13.488 81.3484 13.584 81.8284 13.584C82.1484 13.584 82.7084 13.6 83.5084 13.632C84.3404 13.632 85.2684 13.632 86.2924 13.632C87.3164 13.6 88.4044 13.584 89.5564 13.584C90.7084 13.552 91.7644 13.52 92.7244 13.488C93.6844 13.424 94.5004 13.344 95.1724 13.248C95.8764 13.12 96.2924 12.976 96.4204 12.816C96.6124 12.528 96.7724 12.224 96.9004 11.904C97.0284 11.552 97.2204 11.248 97.4764 10.992L97.8604 10.944C98.2444 10.944 98.5324 11.136 98.7244 11.52C98.9164 11.904 99.0444 12.352 99.1084 12.864C99.2044 13.376 99.2364 13.904 99.2044 14.448C99.2044 14.96 99.2044 15.344 99.2044 15.6C99.2044 15.824 99.1884 16.112 99.1564 16.464C99.1564 16.816 99.1084 17.168 99.0124 17.52C98.9484 17.872 98.8204 18.176 98.6284 18.432C98.4684 18.688 98.2284 18.816 97.9084 18.816C97.8124 18.816 97.7004 18.8 97.5724 18.768C97.4764 18.736 97.3964 18.704 97.3324 18.672C97.0444 18.384 96.8204 18.064 96.6604 17.712C96.5324 17.328 96.3244 16.976 96.0364 16.656C95.9084 16.528 95.5404 16.432 94.9324 16.368C94.3244 16.272 93.5724 16.208 92.6764 16.176C91.8124 16.112 90.8524 16.064 89.7964 16.032C88.7724 16 87.7804 15.984 86.8204 15.984C85.8924 15.952 85.0604 15.936 84.3244 15.936C83.5884 15.936 83.0604 15.936 82.7404 15.936C82.1964 15.936 81.7644 16 81.4444 16.128C81.1564 16.224 80.9324 16.384 80.7724 16.608C80.6124 16.8 80.5164 17.072 80.4844 17.424C80.4524 17.776 80.4364 18.192 80.4364 18.672C80.4364 20.592 80.4844 22.512 80.5804 24.432C80.6764 26.32 80.7244 28.224 80.7244 30.144C80.7244 30.592 80.6764 31.04 80.5804 31.488C80.5164 31.936 80.4844 32.384 80.4844 32.832L80.5324 33.456C80.7564 33.488 80.9644 33.504 81.1564 33.504C81.3804 33.504 81.6204 33.504 81.8764 33.504C82.4844 33.504 83.3964 33.504 84.6124 33.504C85.8604 33.504 87.1564 33.488 88.5004 33.456C89.8444 33.424 91.0924 33.36 92.2444 33.264C93.3964 33.136 94.1804 32.96 94.5964 32.736C94.7884 32.64 95.0284 32.448 95.3164 32.16C95.6044 31.872 95.8924 31.584 96.1804 31.296C96.5004 30.976 96.7884 30.704 97.0444 30.48C97.3004 30.224 97.5084 30.096 97.6684 30.096C97.9564 30.096 98.2284 30.192 98.4844 30.384C98.7404 30.576 98.8684 30.816 98.8684 31.104C98.8684 31.296 98.7404 31.68 98.4844 32.256C98.2284 32.8 97.9244 33.376 97.5724 33.984C97.2524 34.56 96.9164 35.072 96.5644 35.52C96.2444 35.968 96.0044 36.192 95.8444 36.192H76.6444C76.4844 36.192 76.2764 36.176 76.0204 36.144C75.7964 36.144 75.5724 36.096 75.3484 36C75.1564 35.936 74.9804 35.84 74.8204 35.712C74.6604 35.584 74.5804 35.408 74.5804 35.184C74.7724 34.704 74.9804 34.368 75.2044 34.176C75.4284 33.952 75.6364 33.808 75.8284 33.744C76.0524 33.648 76.2444 33.568 76.4044 33.504C76.5964 33.44 76.7564 33.296 76.8844 33.072C76.9484 32.976 76.9964 32.416 77.0284 31.392C77.0924 30.368 77.1404 29.088 77.1724 27.552C77.2044 26.016 77.2204 24.32 77.2204 22.464C77.2204 20.608 77.2204 18.784 77.2204 16.992C77.2524 15.168 77.2684 13.488 77.2684 11.952C77.2684 10.384 77.2684 9.152 77.2684 8.256C77.2684 8.064 77.2524 7.792 77.2204 7.44C77.2204 7.056 77.2044 6.672 77.1724 6.288C77.1724 5.904 77.1404 5.552 77.0764 5.232C77.0444 4.88 76.9804 4.624 76.8844 4.464C76.7884 4.304 76.6284 4.176 76.4044 4.08C76.1804 3.984 75.9404 3.888 75.6844 3.792C75.4604 3.696 75.2524 3.6 75.0604 3.504C74.9004 3.376 74.8204 3.2 74.8204 2.976C74.8204 2.496 75.1724 2.176 75.8764 2.016C76.5804 1.824 77.3804 1.712 78.2764 1.68C79.2044 1.648 80.1164 1.664 81.0124 1.728C81.9084 1.792 82.5324 1.824 82.8844 1.824ZM121.12 1.296C123.52 1.296 125.92 1.328 128.32 1.392C130.72 1.456 133.12 1.488 135.52 1.488C135.872 1.488 136.192 1.536 136.48 1.632C136.768 1.728 136.912 2 136.912 2.448C136.912 2.928 136.768 3.248 136.48 3.408C136.192 3.536 135.856 3.648 135.472 3.744C135.12 3.84 134.8 3.968 134.512 4.128C134.224 4.288 134.08 4.608 134.08 5.088C134.08 5.344 134.128 5.936 134.224 6.864C134.352 7.792 134.512 8.944 134.704 10.32C134.896 11.664 135.104 13.152 135.328 14.784C135.584 16.416 135.84 18.08 136.096 19.776C136.352 21.44 136.592 23.072 136.816 24.672C137.072 26.24 137.296 27.648 137.488 28.896C137.712 30.112 137.888 31.104 138.016 31.872C138.144 32.64 138.224 33.04 138.256 33.072C138.448 33.328 138.704 33.488 139.024 33.552C139.376 33.616 139.712 33.68 140.032 33.744C140.384 33.808 140.688 33.92 140.944 34.08C141.2 34.208 141.328 34.448 141.328 34.8C141.328 35.312 141.12 35.616 140.704 35.712C140.288 35.776 139.904 35.808 139.552 35.808H134.416C134.128 35.808 133.76 35.776 133.312 35.712C132.896 35.616 132.688 35.36 132.688 34.944C132.688 34.592 132.848 34.336 133.168 34.176C133.36 33.92 133.616 33.744 133.936 33.648C134.256 33.52 134.544 33.328 134.8 33.072L134.848 32.688C134.848 32.368 134.784 32.064 134.656 31.776C134.56 31.488 134.48 31.2 134.416 30.912C134.352 30.624 134.272 30.064 134.176 29.232C134.08 28.4 133.968 27.44 133.84 26.352C133.712 25.264 133.568 24.144 133.408 22.992C133.248 21.808 133.104 20.72 132.976 19.728C132.848 18.736 132.72 17.904 132.592 17.232C132.464 16.56 132.352 16.192 132.256 16.128C132.192 16.096 131.76 16.048 130.96 15.984C130.16 15.92 129.248 15.872 128.224 15.84C127.2 15.808 126.208 15.776 125.248 15.744C124.32 15.712 123.68 15.696 123.328 15.696C123.232 15.696 123.072 15.696 122.848 15.696C122.624 15.696 122.48 15.712 122.416 15.744C122.288 15.776 122.128 16.176 121.936 16.944C121.744 17.68 121.52 18.624 121.264 19.776C121.04 20.896 120.8 22.128 120.544 23.472C120.32 24.816 120.112 26.112 119.92 27.36C119.728 28.576 119.568 29.664 119.44 30.624C119.312 31.584 119.248 32.224 119.248 32.544C119.248 32.96 119.376 33.264 119.632 33.456C119.92 33.648 120.224 33.808 120.544 33.936C120.864 34.032 121.152 34.16 121.408 34.32C121.696 34.448 121.84 34.672 121.84 34.992C121.84 35.248 121.76 35.44 121.6 35.568C121.44 35.696 121.232 35.792 120.976 35.856C120.752 35.888 120.512 35.92 120.256 35.952C120.032 35.952 119.84 35.952 119.68 35.952C119.328 35.952 118.8 35.968 118.096 36C117.424 36.032 116.736 36.032 116.032 36C115.36 35.936 114.752 35.824 114.208 35.664C113.696 35.472 113.44 35.152 113.44 34.704C113.44 34.384 113.568 34.176 113.824 34.08C114.08 33.952 114.384 33.84 114.736 33.744C115.088 33.648 115.424 33.504 115.744 33.312C116.096 33.12 116.368 32.8 116.56 32.352C116.56 32.352 116.624 31.968 116.752 31.2C116.88 30.4 117.056 29.376 117.28 28.128C117.504 26.848 117.744 25.408 118 23.808C118.256 22.176 118.528 20.512 118.816 18.816C119.104 17.12 119.376 15.456 119.632 13.824C119.888 12.16 120.112 10.688 120.304 9.408C120.528 8.096 120.704 7.024 120.832 6.192C120.96 5.36 121.024 4.896 121.024 4.8C121.024 4.384 120.896 4.112 120.64 3.984C120.384 3.824 120.112 3.696 119.824 3.6C119.536 3.504 119.264 3.392 119.008 3.264C118.752 3.136 118.624 2.896 118.624 2.544C118.624 2.256 118.72 2.032 118.912 1.872C119.104 1.712 119.328 1.6 119.584 1.536C119.84 1.44 120.112 1.376 120.4 1.344C120.688 1.312 120.928 1.296 121.12 1.296ZM122.656 12.192C122.656 12.416 122.688 12.688 122.752 13.008C123.296 13.232 123.872 13.344 124.48 13.344C125.6 13.344 126.704 13.328 127.792 13.296C128.912 13.232 130.032 13.2 131.152 13.2C131.376 13.2 131.552 13.104 131.68 12.912C131.808 12.688 131.872 12.48 131.872 12.288C131.872 11.168 131.744 9.936 131.488 8.592C131.232 7.216 130.992 5.952 130.768 4.8C130.736 4.576 130.592 4.416 130.336 4.32C130.08 4.192 129.776 4.112 129.424 4.08C129.104 4.016 128.784 3.984 128.464 3.984C128.144 3.984 127.904 3.984 127.744 3.984C127.296 3.984 126.8 3.984 126.256 3.984C125.712 3.952 125.216 3.984 124.768 4.08C124.48 4.144 124.208 4.56 123.952 5.328C123.696 6.064 123.472 6.896 123.28 7.824C123.088 8.72 122.928 9.6 122.8 10.464C122.704 11.328 122.656 11.904 122.656 12.192ZM150.046 1.44H154.798C155.15 1.44 155.534 1.552 155.95 1.776C156.398 1.968 156.622 2.288 156.622 2.736C156.622 2.992 156.526 3.184 156.334 3.312C156.174 3.44 155.982 3.568 155.758 3.696C155.566 3.824 155.374 3.952 155.182 4.08C155.022 4.208 154.942 4.4 154.942 4.656C155.07 4.944 155.278 5.36 155.566 5.904C155.854 6.448 156.174 7.072 156.526 7.776C156.878 8.448 157.246 9.168 157.63 9.936C158.046 10.672 158.43 11.36 158.782 12C159.134 12.64 159.454 13.184 159.742 13.632C160.03 14.08 160.254 14.368 160.414 14.496C160.574 14.4 160.814 14.112 161.134 13.632C161.454 13.12 161.806 12.528 162.19 11.856C162.606 11.184 163.022 10.464 163.438 9.696C163.854 8.896 164.238 8.16 164.59 7.488C164.942 6.784 165.23 6.176 165.454 5.664C165.678 5.152 165.79 4.816 165.79 4.656L165.742 4.368C165.582 4.176 165.39 4.032 165.166 3.936C164.974 3.84 164.782 3.744 164.59 3.648C164.398 3.552 164.222 3.44 164.062 3.312C163.934 3.152 163.87 2.928 163.87 2.64C163.87 2.064 164.078 1.712 164.494 1.584C164.942 1.456 165.39 1.392 165.838 1.392C166.126 1.392 166.638 1.392 167.374 1.392C168.11 1.36 168.862 1.376 169.63 1.44C170.398 1.504 171.07 1.632 171.646 1.824C172.254 2.016 172.558 2.304 172.558 2.688C172.558 3.072 172.446 3.36 172.222 3.552C172.03 3.712 171.79 3.856 171.502 3.984C171.246 4.08 171.006 4.224 170.782 4.416C170.59 4.576 170.494 4.864 170.494 5.28C170.494 6.336 170.654 7.584 170.974 9.024C171.294 10.432 171.646 11.872 172.03 13.344C172.414 14.784 172.766 16.176 173.086 17.52C173.406 18.832 173.566 19.92 173.566 20.784C173.758 21.2 173.918 21.776 174.046 22.512C174.206 23.216 174.35 24 174.478 24.864C174.638 25.696 174.782 26.56 174.91 27.456C175.038 28.32 175.182 29.152 175.342 29.952C175.502 30.72 175.662 31.392 175.822 31.968C176.014 32.544 176.238 32.944 176.494 33.168C176.718 33.392 176.99 33.552 177.31 33.648C177.63 33.712 177.934 33.808 178.222 33.936C178.51 34.032 178.75 34.176 178.942 34.368C179.166 34.528 179.278 34.816 179.278 35.232C179.278 35.488 179.15 35.728 178.894 35.952C178.638 36.176 178.382 36.288 178.126 36.288C177.774 36.288 177.166 36.288 176.302 36.288C175.47 36.32 174.59 36.304 173.662 36.24C172.766 36.176 171.966 36.048 171.262 35.856C170.59 35.664 170.254 35.344 170.254 34.896L170.302 34.656C170.43 34.464 170.622 34.304 170.878 34.176C171.134 34.016 171.374 33.856 171.598 33.696C171.854 33.536 172.062 33.376 172.222 33.216C172.414 33.024 172.51 32.784 172.51 32.496C172.51 32.144 172.414 31.36 172.222 30.144C172.03 28.928 171.774 27.52 171.454 25.92C171.166 24.288 170.83 22.544 170.446 20.688C170.062 18.832 169.694 17.072 169.342 15.408C168.99 13.744 168.67 12.272 168.382 10.992C168.094 9.712 167.87 8.832 167.71 8.352L167.182 8.208C166.158 9.84 165.134 11.568 164.11 13.392C163.118 15.184 162.254 16.976 161.518 18.768C161.422 19.056 161.278 19.344 161.086 19.632C160.894 19.92 160.622 20.064 160.27 20.064C160.046 20.064 159.726 19.776 159.31 19.2C158.894 18.624 158.43 17.904 157.918 17.04C157.438 16.176 156.926 15.232 156.382 14.208C155.87 13.184 155.374 12.24 154.894 11.376C154.446 10.48 154.03 9.744 153.646 9.168C153.294 8.56 153.038 8.256 152.878 8.256L152.398 8.736C152.366 8.8 152.27 9.2 152.11 9.936C151.982 10.64 151.806 11.568 151.582 12.72C151.39 13.84 151.15 15.12 150.862 16.56C150.606 17.968 150.334 19.424 150.046 20.928C149.758 22.4 149.486 23.856 149.23 25.296C148.974 26.704 148.734 27.984 148.51 29.136C148.318 30.256 148.158 31.184 148.03 31.92C147.902 32.656 147.838 33.072 147.838 33.168C147.966 33.456 148.174 33.664 148.462 33.792C148.782 33.888 149.086 33.984 149.374 34.08C149.662 34.176 149.918 34.304 150.142 34.464C150.366 34.592 150.478 34.848 150.478 35.232C150.478 35.584 150.318 35.824 149.998 35.952C149.678 36.048 149.39 36.096 149.134 36.096C148.846 36.096 148.318 36.096 147.55 36.096C146.782 36.128 145.998 36.112 145.198 36.048C144.43 35.984 143.726 35.872 143.086 35.712C142.478 35.52 142.174 35.232 142.174 34.848C142.174 34.56 142.254 34.336 142.414 34.176C142.574 34.016 142.766 33.888 142.99 33.792C143.246 33.664 143.502 33.568 143.758 33.504C144.014 33.408 144.222 33.296 144.382 33.168C144.83 32.912 145.102 32.544 145.198 32.064C145.294 31.552 145.39 31.072 145.486 30.624C146.126 27.456 146.718 24.304 147.262 21.168C147.838 18 148.462 14.832 149.134 11.664C149.358 10.608 149.63 9.568 149.95 8.544C150.27 7.488 150.43 6.416 150.43 5.328C150.43 4.912 150.302 4.608 150.046 4.416C149.822 4.224 149.55 4.064 149.23 3.936C148.942 3.776 148.67 3.616 148.414 3.456C148.19 3.264 148.078 2.976 148.078 2.592C148.302 2.08 148.542 1.76 148.798 1.632C149.086 1.504 149.502 1.44 150.046 1.44Z" fill="white"/>
<path d="M31.6697 52.66C34.7497 52.66 37.7597 52.59 40.6997 52.45C43.6864 52.31 46.7197 52.24 49.7997 52.24C50.2664 52.24 50.6864 52.5433 51.0597 53.15C51.433 53.71 51.7597 54.3867 52.0397 55.18C52.3197 55.9267 52.5297 56.6967 52.6697 57.49C52.8564 58.2367 52.9497 58.7967 52.9497 59.17C52.9497 59.5433 52.8097 59.87 52.5297 60.15C52.2964 60.43 51.993 60.57 51.6197 60.57C51.1997 60.57 50.8264 60.4067 50.4997 60.08C50.173 59.7067 49.8464 59.31 49.5197 58.89C49.2397 58.4233 48.913 57.98 48.5397 57.56C48.213 57.14 47.8397 56.86 47.4197 56.72C46.533 56.44 45.5997 56.2767 44.6197 56.23C43.6864 56.1833 42.7764 56.16 41.8897 56.16C39.8364 56.16 37.8064 56.2067 35.7997 56.3C33.8397 56.3933 31.833 56.44 29.7797 56.44C29.1264 56.44 28.7997 56.72 28.7997 57.28C28.6597 57.6533 28.543 58.33 28.4497 59.31C28.403 60.2433 28.3564 61.27 28.3097 62.39C28.263 63.51 28.2397 64.6067 28.2397 65.68C28.2397 66.7067 28.2397 67.4533 28.2397 67.92C28.2397 68.62 28.3797 69.11 28.6597 69.39C28.9397 69.67 29.4297 69.81 30.1297 69.81C30.5964 69.81 31.413 69.8333 32.5797 69.88C33.793 69.88 35.1464 69.88 36.6397 69.88C38.133 69.8333 39.7197 69.81 41.3997 69.81C43.0797 69.7633 44.6197 69.7167 46.0197 69.67C47.4197 69.5767 48.6097 69.46 49.5897 69.32C50.6164 69.1333 51.223 68.9233 51.4097 68.69C51.6897 68.27 51.923 67.8267 52.1097 67.36C52.2964 66.8467 52.5764 66.4033 52.9497 66.03L53.5097 65.96C54.0697 65.96 54.4897 66.24 54.7697 66.8C55.0497 67.36 55.2364 68.0133 55.3297 68.76C55.4697 69.5067 55.5164 70.2767 55.4697 71.07C55.4697 71.8167 55.4697 72.3767 55.4697 72.75C55.4697 73.0767 55.4464 73.4967 55.3997 74.01C55.3997 74.5233 55.3297 75.0367 55.1897 75.55C55.0964 76.0633 54.9097 76.5067 54.6297 76.88C54.3964 77.2533 54.0464 77.44 53.5797 77.44C53.4397 77.44 53.2764 77.4167 53.0897 77.37C52.9497 77.3233 52.833 77.2767 52.7397 77.23C52.3197 76.81 51.993 76.3433 51.7597 75.83C51.573 75.27 51.2697 74.7567 50.8497 74.29C50.663 74.1033 50.1264 73.9633 49.2397 73.87C48.353 73.73 47.2564 73.6367 45.9497 73.59C44.6897 73.4967 43.2897 73.4267 41.7497 73.38C40.2564 73.3333 38.8097 73.31 37.4097 73.31C36.0564 73.2633 34.843 73.24 33.7697 73.24C32.6964 73.24 31.9264 73.24 31.4597 73.24C30.6664 73.24 30.0364 73.3333 29.5697 73.52C29.1497 73.66 28.823 73.8933 28.5897 74.22C28.3564 74.5 28.2164 74.8967 28.1697 75.41C28.123 75.9233 28.0997 76.53 28.0997 77.23C28.0997 80.03 28.1697 82.83 28.3097 85.63C28.4497 88.3833 28.5197 91.16 28.5197 93.96C28.5197 94.6133 28.4497 95.2667 28.3097 95.92C28.2164 96.5733 28.1697 97.2267 28.1697 97.88L28.2397 98.79C28.5664 98.8367 28.8697 98.86 29.1497 98.86C29.4764 98.86 29.8264 98.86 30.1997 98.86C31.0864 98.86 32.4164 98.86 34.1897 98.86C36.0097 98.86 37.8997 98.8367 39.8597 98.79C41.8197 98.7433 43.6397 98.65 45.3197 98.51C46.9997 98.3233 48.143 98.0667 48.7497 97.74C49.0297 97.6 49.3797 97.32 49.7997 96.9C50.2197 96.48 50.6397 96.06 51.0597 95.64C51.5264 95.1733 51.9464 94.7767 52.3197 94.45C52.693 94.0767 52.9964 93.89 53.2297 93.89C53.6497 93.89 54.0464 94.03 54.4197 94.31C54.793 94.59 54.9797 94.94 54.9797 95.36C54.9797 95.64 54.793 96.2 54.4197 97.04C54.0464 97.8333 53.603 98.6733 53.0897 99.56C52.623 100.4 52.133 101.147 51.6197 101.8C51.153 102.453 50.803 102.78 50.5697 102.78H22.5697C22.3364 102.78 22.033 102.757 21.6597 102.71C21.333 102.71 21.0064 102.64 20.6797 102.5C20.3997 102.407 20.143 102.267 19.9097 102.08C19.6764 101.893 19.5597 101.637 19.5597 101.31C19.8397 100.61 20.143 100.12 20.4697 99.84C20.7964 99.5133 21.0997 99.3033 21.3797 99.21C21.7064 99.07 21.9864 98.9533 22.2197 98.86C22.4997 98.7667 22.733 98.5567 22.9197 98.23C23.013 98.09 23.083 97.2733 23.1297 95.78C23.223 94.2867 23.293 92.42 23.3397 90.18C23.3864 87.94 23.4097 85.4667 23.4097 82.76C23.4097 80.0533 23.4097 77.3933 23.4097 74.78C23.4564 72.12 23.4797 69.67 23.4797 67.43C23.4797 65.1433 23.4797 63.3467 23.4797 62.04C23.4797 61.76 23.4564 61.3633 23.4097 60.85C23.4097 60.29 23.3864 59.73 23.3397 59.17C23.3397 58.61 23.293 58.0967 23.1997 57.63C23.153 57.1167 23.0597 56.7433 22.9197 56.51C22.7797 56.2767 22.5464 56.09 22.2197 55.95C21.893 55.81 21.543 55.67 21.1697 55.53C20.843 55.39 20.5397 55.25 20.2597 55.11C20.0264 54.9233 19.9097 54.6667 19.9097 54.34C19.9097 53.64 20.423 53.1733 21.4497 52.94C22.4764 52.66 23.643 52.4967 24.9497 52.45C26.303 52.4033 27.633 52.4267 28.9397 52.52C30.2464 52.6133 31.1564 52.66 31.6697 52.66ZM68.9983 69.04C69.8383 69.04 70.6316 69.2033 71.3783 69.53C72.1716 69.81 72.9649 69.95 73.7583 69.95C74.0849 69.95 74.3883 69.9033 74.6683 69.81C74.9949 69.67 75.3216 69.6 75.6483 69.6C76.0683 69.6 76.4416 69.8567 76.7683 70.37C77.1416 70.8833 77.4449 71.49 77.6783 72.19C77.9583 72.8433 78.1449 73.52 78.2383 74.22C78.3783 74.8733 78.4483 75.3633 78.4483 75.69C78.4483 75.8767 78.4016 76.1567 78.3083 76.53L77.8183 77.02C77.1183 76.88 76.5116 76.5767 75.9983 76.11C75.5316 75.5967 74.9949 75.0833 74.3883 74.57C73.8283 74.0567 73.1283 73.59 72.2883 73.17C71.4483 72.75 70.3283 72.54 68.9283 72.54C67.9949 72.54 67.2016 72.82 66.5483 73.38C65.8949 73.94 65.5683 74.6867 65.5683 75.62C65.5683 76.6933 65.9416 77.6033 66.6883 78.35C67.4816 79.0967 68.4383 79.82 69.5583 80.52C70.7249 81.1733 71.9849 81.85 73.3383 82.55C74.6916 83.25 75.9283 84.0667 77.0483 85C78.2149 85.9333 79.1716 87.0533 79.9183 88.36C80.7116 89.6667 81.1083 91.2533 81.1083 93.12C81.1083 94.3333 80.8516 95.5233 80.3383 96.69C79.8249 97.81 79.1249 98.8133 78.2383 99.7C77.3516 100.54 76.3483 101.24 75.2283 101.8C74.1083 102.313 72.9183 102.57 71.6583 102.57C71.0983 102.57 70.5383 102.5 69.9783 102.36C69.4183 102.173 68.8816 101.987 68.3683 101.8C67.8549 101.567 67.3183 101.357 66.7583 101.17C66.1983 100.983 65.6383 100.89 65.0783 100.89C64.6583 100.89 64.2849 101.077 63.9583 101.45C63.6783 101.823 63.3283 102.01 62.9083 102.01C62.4416 102.01 61.9983 101.637 61.5783 100.89C61.1583 100.143 60.7849 99.3033 60.4583 98.37C60.1783 97.39 59.9449 96.4333 59.7583 95.5C59.5716 94.5667 59.4783 93.9133 59.4783 93.54L60.4583 93.12C61.0183 93.12 61.5316 93.4 61.9983 93.96C62.5116 94.4733 63.1183 95.08 63.8183 95.78C64.5183 96.4333 65.3816 97.04 66.4083 97.6C67.4816 98.1133 68.8816 98.37 70.6083 98.37C72.2416 98.37 73.6649 97.9267 74.8783 97.04C76.0916 96.1067 76.6983 94.7767 76.6983 93.05C76.6983 91.6967 76.3249 90.5533 75.5783 89.62C74.8316 88.6867 73.8983 87.8467 72.7783 87.1C71.6583 86.3067 70.4216 85.56 69.0683 84.86C67.7616 84.16 66.5483 83.3667 65.4283 82.48C64.3083 81.5933 63.3749 80.5667 62.6283 79.4C61.8816 78.1867 61.5083 76.74 61.5083 75.06C61.5083 74.1267 61.7416 73.2867 62.2083 72.54C62.6749 71.7933 63.2583 71.1633 63.9583 70.65C64.7049 70.1367 65.5216 69.74 66.4083 69.46C67.2949 69.18 68.1583 69.04 68.9983 69.04ZM94.4154 68.41C96.0487 68.41 97.5421 68.7133 98.8954 69.32C99.2221 69.6933 99.5254 69.9267 99.8054 70.02C100.132 70.1133 100.435 70.1367 100.715 70.09C100.995 70.0433 101.275 69.9967 101.555 69.95C101.882 69.8567 102.232 69.81 102.605 69.81C103.025 69.81 103.399 69.9967 103.725 70.37C104.099 70.6967 104.285 71.07 104.285 71.49C104.285 71.8633 104.099 72.4467 103.725 73.24C103.399 73.9867 102.979 74.7333 102.465 75.48C101.999 76.2267 101.485 76.88 100.925 77.44C100.412 78 99.9454 78.28 99.5254 78.28C98.8721 78.28 98.4987 77.9767 98.4054 77.37C98.3121 76.7633 98.2187 76.11 98.1254 75.41C98.0787 74.71 97.8921 74.0567 97.5654 73.45C97.2854 72.8433 96.5854 72.54 95.4654 72.54C93.8787 72.54 92.5487 72.9367 91.4754 73.73C90.4021 74.5233 89.5387 75.5267 88.8854 76.74C88.2787 77.9533 87.8354 79.2833 87.5554 80.73C87.2754 82.13 87.1354 83.4833 87.1354 84.79C87.1354 86.05 87.2521 87.45 87.4854 88.99C87.7187 90.53 88.1154 91.9767 88.6754 93.33C89.2821 94.6833 90.0987 95.8267 91.1254 96.76C92.1521 97.6467 93.4821 98.09 95.1154 98.09C96.7954 98.09 97.9854 97.8567 98.6854 97.39C99.4321 96.8767 100.015 96.27 100.435 95.57C100.855 94.87 101.275 94.17 101.695 93.47C102.115 92.7233 102.862 92.1167 103.935 91.65C104.402 92.1167 104.635 92.7 104.635 93.4C104.635 94.52 104.379 95.64 103.865 96.76C103.399 97.8333 102.745 98.8133 101.905 99.7C101.112 100.54 100.179 101.24 99.1054 101.8C98.0321 102.313 96.9121 102.57 95.7454 102.57C93.1787 102.57 91.0554 102.033 89.3754 100.96C87.6954 99.84 86.3654 98.4167 85.3854 96.69C84.4054 94.9633 83.7054 93.05 83.2854 90.95C82.9121 88.8033 82.7254 86.7033 82.7254 84.65C82.7254 82.83 82.9121 80.9633 83.2854 79.05C83.6587 77.1367 84.2887 75.3867 85.1754 73.8C86.0621 72.2133 87.2521 70.93 88.7454 69.95C90.2854 68.9233 92.1754 68.41 94.4154 68.41ZM105.898 53.92C105.898 53.4533 106.131 53.1033 106.598 52.87C107.111 52.6367 107.694 52.4967 108.348 52.45C109.001 52.3567 109.631 52.3333 110.238 52.38C110.891 52.38 111.358 52.38 111.638 52.38C111.964 52.38 112.431 52.4033 113.038 52.45C113.644 52.45 114.251 52.52 114.858 52.66C115.464 52.7533 116.001 52.94 116.468 53.22C116.934 53.4533 117.168 53.8033 117.168 54.27C117.168 54.8767 116.981 55.25 116.608 55.39C116.234 55.53 115.814 55.67 115.348 55.81C114.928 55.95 114.531 56.23 114.158 56.65C113.784 57.07 113.598 57.8633 113.598 59.03V69.32C113.598 69.8333 113.621 70.37 113.668 70.93C113.714 71.4433 113.784 71.98 113.878 72.54H114.648C115.441 71.56 116.328 70.72 117.308 70.02C118.334 69.32 119.524 68.97 120.878 68.97C123.351 68.97 125.264 69.53 126.618 70.65C128.018 71.7233 129.044 73.1233 129.698 74.85C130.398 76.53 130.818 78.3967 130.958 80.45C131.098 82.4567 131.168 84.3933 131.168 86.26C131.168 88.2667 130.981 90.25 130.608 92.21C130.281 94.1233 129.651 95.99 128.718 97.81L128.998 98.86C129.231 98.9533 129.511 99.0233 129.838 99.07C130.164 99.1167 130.468 99.21 130.748 99.35C131.028 99.4433 131.261 99.6067 131.448 99.84C131.681 100.027 131.798 100.283 131.798 100.61C131.798 101.077 131.541 101.45 131.028 101.73C130.561 101.963 129.978 102.15 129.278 102.29C128.624 102.383 127.971 102.453 127.318 102.5C126.664 102.5 126.174 102.5 125.848 102.5C125.568 102.5 125.218 102.5 124.798 102.5C124.424 102.453 124.051 102.383 123.678 102.29C123.351 102.197 123.048 102.057 122.768 101.87C122.534 101.637 122.418 101.31 122.418 100.89C122.418 100.517 122.604 99.91 122.978 99.07C123.351 98.1833 123.771 97.2033 124.238 96.13C124.704 95.0567 125.148 93.96 125.568 92.84C125.988 91.72 126.244 90.7167 126.338 89.83C126.431 88.7567 126.524 87.73 126.618 86.75C126.711 85.7233 126.758 84.6733 126.758 83.6C126.758 82.7133 126.711 81.6867 126.618 80.52C126.524 79.3067 126.291 78.1633 125.918 77.09C125.591 75.97 125.054 75.0367 124.308 74.29C123.608 73.4967 122.651 73.1 121.438 73.1C119.944 73.1 118.708 73.4733 117.728 74.22C116.748 74.92 115.978 75.83 115.418 76.95C114.858 78.07 114.461 79.2833 114.228 80.59C113.994 81.8967 113.878 83.1333 113.878 84.3C113.878 84.6267 113.878 85.1867 113.878 85.98C113.878 86.7267 113.878 87.59 113.878 88.57C113.878 89.55 113.901 90.5767 113.948 91.65C113.994 92.7233 114.041 93.7267 114.088 94.66C114.134 95.5933 114.204 96.41 114.298 97.11C114.391 97.7633 114.508 98.16 114.648 98.3C114.788 98.5333 115.021 98.7667 115.348 99C115.721 99.1867 116.071 99.3967 116.398 99.63C116.724 99.8167 117.004 100.027 117.238 100.26C117.518 100.447 117.658 100.657 117.658 100.89C117.658 101.403 117.378 101.777 116.818 102.01C116.304 102.243 115.674 102.407 114.928 102.5C114.228 102.547 113.504 102.547 112.758 102.5C112.058 102.5 111.544 102.5 111.218 102.5C110.938 102.5 110.541 102.5 110.028 102.5C109.514 102.453 109.001 102.383 108.488 102.29C108.021 102.197 107.601 102.033 107.228 101.8C106.901 101.52 106.738 101.17 106.738 100.75C106.738 100.283 106.854 99.9333 107.088 99.7C107.368 99.42 107.671 99.1867 107.998 99C108.371 98.7667 108.698 98.51 108.978 98.23C109.304 97.9033 109.514 97.4833 109.608 96.97C109.748 95.9433 109.818 94.8933 109.818 93.82C109.864 92.7 109.888 91.6267 109.888 90.6C109.888 90.04 109.864 88.85 109.818 87.03C109.818 85.1633 109.794 83.04 109.748 80.66C109.701 78.2333 109.631 75.6667 109.538 72.96C109.491 70.2533 109.421 67.7567 109.328 65.47C109.281 63.1367 109.188 61.1767 109.048 59.59C108.954 58.0033 108.861 57.07 108.768 56.79C108.581 56.37 108.324 56.0433 107.998 55.81C107.671 55.5767 107.344 55.39 107.018 55.25C106.738 55.11 106.481 54.9467 106.248 54.76C106.014 54.5733 105.898 54.2933 105.898 53.92ZM144.544 69.11C146.27 69.11 147.717 69.2967 148.884 69.67C150.097 69.9967 151.1 70.5333 151.894 71.28C152.734 72.0267 153.387 73.0067 153.854 74.22C154.367 75.3867 154.81 76.7867 155.184 78.42L155.254 78.91C155.254 79.4233 154.904 79.9367 154.204 80.45C153.504 80.9167 152.617 81.43 151.544 81.99C150.47 82.5033 149.28 83.0167 147.974 83.53C146.714 84.0433 145.477 84.58 144.264 85.14C143.097 85.7 142.047 86.26 141.114 86.82C140.18 87.38 139.55 87.9633 139.224 88.57L139.154 89.13C139.154 90.25 139.34 91.37 139.714 92.49C140.087 93.5633 140.6 94.5433 141.254 95.43C141.954 96.27 142.77 96.97 143.704 97.53C144.684 98.09 145.78 98.37 146.994 98.37C148.254 98.37 149.257 98.0667 150.004 97.46C150.75 96.8067 151.38 96.1067 151.894 95.36C152.407 94.5667 152.85 93.8433 153.224 93.19C153.644 92.5367 154.157 92.21 154.764 92.21C155.277 92.21 155.604 92.3733 155.744 92.7C155.93 93.0267 156.024 93.4 156.024 93.82C156.024 94.94 155.697 96.0367 155.044 97.11C154.39 98.1367 153.55 99.07 152.524 99.91C151.497 100.703 150.377 101.333 149.164 101.8C147.997 102.267 146.877 102.5 145.804 102.5C143.424 102.5 141.487 101.963 139.994 100.89C138.5 99.8167 137.334 98.44 136.494 96.76C135.654 95.08 135.07 93.2367 134.744 91.23C134.464 89.2233 134.324 87.2867 134.324 85.42C134.324 83.7867 134.464 82.0133 134.744 80.1C135.024 78.1867 135.537 76.4133 136.284 74.78C137.03 73.1467 138.057 71.7933 139.364 70.72C140.717 69.6467 142.444 69.11 144.544 69.11ZM138.874 82.2L138.944 83.25C139.037 83.25 139.177 83.2967 139.364 83.39C139.55 83.4367 139.69 83.46 139.784 83.46C140.064 83.46 140.717 83.2267 141.744 82.76C142.77 82.2933 143.867 81.7567 145.034 81.15C146.2 80.5433 147.227 79.96 148.114 79.4C149.047 78.7933 149.537 78.3733 149.584 78.14L149.654 77.44C149.654 75.8533 149.117 74.6867 148.044 73.94C146.97 73.1933 145.71 72.82 144.264 72.82C143.47 72.82 142.724 73.1933 142.024 73.94C141.37 74.64 140.81 75.5033 140.344 76.53C139.877 77.51 139.504 78.5367 139.224 79.61C138.99 80.6833 138.874 81.5467 138.874 82.2ZM166.477 72.26C167.177 71.5133 167.994 70.9067 168.927 70.44C169.907 69.9733 170.91 69.74 171.937 69.74C172.404 69.74 172.987 69.8333 173.687 70.02C174.387 70.16 175.064 70.3933 175.717 70.72C176.417 71.0467 177 71.4433 177.467 71.91C177.934 72.33 178.167 72.82 178.167 73.38C178.167 73.66 178.027 74.08 177.747 74.64C177.467 75.2 177.14 75.76 176.767 76.32C176.394 76.8333 175.974 77.3 175.507 77.72C175.087 78.0933 174.714 78.28 174.387 78.28C173.734 78.28 173.337 78.0233 173.197 77.51C173.057 76.9967 172.94 76.46 172.847 75.9C172.754 75.2933 172.59 74.7333 172.357 74.22C172.17 73.7067 171.68 73.45 170.887 73.45C170 73.45 169.23 73.87 168.577 74.71C167.97 75.55 167.457 76.5533 167.037 77.72C166.664 78.84 166.384 79.9833 166.197 81.15C166.01 82.3167 165.917 83.25 165.917 83.95V95.36C165.917 95.9667 165.94 96.62 165.987 97.32C166.08 98.02 166.244 98.6267 166.477 99.14C166.99 99.2333 167.504 99.3267 168.017 99.42C168.53 99.5133 168.974 99.77 169.347 100.19C169.394 100.283 169.44 100.423 169.487 100.61C169.58 100.75 169.627 100.867 169.627 100.96C169.627 101.427 169.464 101.823 169.137 102.15C168.857 102.43 168.46 102.57 167.947 102.57C167.527 102.57 166.804 102.57 165.777 102.57C164.797 102.617 163.77 102.593 162.697 102.5C161.67 102.407 160.76 102.243 159.967 102.01C159.174 101.73 158.777 101.31 158.777 100.75C158.777 100.47 158.87 100.19 159.057 99.91C159.244 99.63 159.5 99.4433 159.827 99.35C160.06 99.1167 160.34 98.9767 160.667 98.93C161.04 98.8833 161.46 98.58 161.927 98.02C161.927 94.0533 161.927 90.11 161.927 86.19C161.927 82.27 161.74 78.3267 161.367 74.36C161.18 73.9867 160.924 73.6833 160.597 73.45C160.317 73.2167 159.99 73.0067 159.617 72.82C159.29 72.6333 158.964 72.4233 158.637 72.19C158.357 71.9567 158.124 71.63 157.937 71.21L158.217 70.93C158.217 70.6967 158.357 70.5333 158.637 70.44C158.917 70.3 159.22 70.2067 159.547 70.16C159.92 70.0667 160.27 70.02 160.597 70.02C160.97 69.9733 161.227 69.95 161.367 69.95C162.44 69.95 163.187 69.9733 163.607 70.02C164.074 70.0667 164.4 70.1833 164.587 70.37C164.774 70.51 164.914 70.7433 165.007 71.07C165.147 71.35 165.45 71.7467 165.917 72.26H166.477Z" fill="white"/>
</svg>
